var mary_had_a_lamb = { "header": { "keySignatures": [{ "key": "C", "scale": "major", "ticks": 0 }], "meta": [{ "text": "David Bruce)", "ticks": 0, "type": "text" }], "name": "Mary Had A Little Lamb (trad. arranged ", "ppq": 960, "tempos": [{ "bpm": 100, "ticks": 0 }], "timeSignatures": [{ "ticks": 0, "timeSignature": [4, 4], "measures": 0 }] }, "tracks": [{ "channel": 0, "controlChanges": { "7": [{ "number": 7, "ticks": 0, "time": 0, "value": 1 }, { "number": 7, "ticks": 0, "time": 0, "value": 1 }], "10": [{ "number": 10, "ticks": 0, "time": 0, "value": 0.4015748031496063 }, { "number": 10, "ticks": 0, "time": 0, "value": 0.4015748031496063 }], "64": [{ "number": 64, "ticks": 0, "time": 0, "value": 0 }, { "number": 64, "ticks": 0, "time": 0, "value": 0 }], "91": [{ "number": 91, "ticks": 0, "time": 0, "value": 0.3779527559055118 }, { "number": 91, "ticks": 0, "time": 0, "value": 0.3779527559055118 }], "121": [{ "number": 121, "ticks": 0, "time": 0, "value": 0 }, { "number": 121, "ticks": 0, "time": 0, "value": 0 }] }, "instrument": { "family": "piano", "name": "acoustic grand piano", "number": 0 }, "name": "Piano", "notes": [{ "duration": 0.611875, "durationTicks": 979, "midi": 64, "name": "E4", "ticks": 0, "time": 0, "velocity": 0.5590551181102362 }, { "duration": 0.611875, "durationTicks": 979, "midi": 48, "name": "C3", "ticks": 0, "time": 0, "velocity": 0.5275590551181102 }, { "duration": 0.6118750000000001, "durationTicks": 979, "midi": 62, "name": "D4", "ticks": 960, "time": 0.6, "velocity": 0.5511811023622047 }, { "duration": 0.6118750000000001, "durationTicks": 979, "midi": 55, "name": "G3", "ticks": 960, "time": 0.6, "velocity": 0.6535433070866141 }, { "duration": 0.6118750000000002, "durationTicks": 979, "midi": 60, "name": "C4", "ticks": 1920, "time": 1.2, "velocity": 0.5748031496062992 }, { "duration": 0.6118750000000002, "durationTicks": 979, "midi": 52, "name": "E3", "ticks": 1920, "time": 1.2, "velocity": 0.6141732283464567 }, { "duration": 0.569375, "durationTicks": 911, "midi": 62, "name": "D4", "ticks": 2880, "time": 1.7999999999999998, "velocity": 0.6220472440944882 }, { "duration": 0.569375, "durationTicks": 911, "midi": 55, "name": "G3", "ticks": 2880, "time": 1.7999999999999998, "velocity": 0.6614173228346457 }, { "duration": 0.6000000000000001, "durationTicks": 960, "midi": 64, "name": "E4", "ticks": 3840, "time": 2.4, "velocity": 0.6929133858267716 }, { "duration": 0.611875, "durationTicks": 979, "midi": 48, "name": "C3", "ticks": 3840, "time": 2.4, "velocity": 0.5433070866141733 }, { "duration": 0.5999999999999996, "durationTicks": 960, "midi": 64, "name": "E4", "ticks": 4800, "time": 3, "velocity": 0.6850393700787402 }, { "duration": 0.6118749999999995, "durationTicks": 979, "midi": 55, "name": "G3", "ticks": 4800, "time": 3, "velocity": 0.6299212598425197 }, { "duration": 1.2000000000000002, "durationTicks": 1920, "midi": 64, "name": "E4", "ticks": 5760, "time": 3.5999999999999996, "velocity": 0.6771653543307087 }, { "duration": 0.6118750000000004, "durationTicks": 979, "midi": 52, "name": "E3", "ticks": 5760, "time": 3.5999999999999996, "velocity": 0.5984251968503937 }, { "duration": 0.569375, "durationTicks": 911, "midi": 55, "name": "G3", "ticks": 6720, "time": 4.2, "velocity": 0.6220472440944882 }, { "duration": 0.5999999999999996, "durationTicks": 960, "midi": 62, "name": "D4", "ticks": 7680, "time": 4.8, "velocity": 0.5826771653543307 }, { "duration": 0.6118749999999995, "durationTicks": 979, "midi": 47, "name": "B2", "ticks": 7680, "time": 4.8, "velocity": 0.5511811023622047 }, { "duration": 0.6000000000000005, "durationTicks": 960, "midi": 62, "name": "D4", "ticks": 8640, "time": 5.3999999999999995, "velocity": 0.6692913385826772 }, { "duration": 0.6118750000000004, "durationTicks": 979, "midi": 55, "name": "G3", "ticks": 8640, "time": 5.3999999999999995, "velocity": 0.6614173228346457 }, { "duration": 1.1999999999999993, "durationTicks": 1920, "midi": 62, "name": "D4", "ticks": 9600, "time": 6, "velocity": 0.6614173228346457 }, { "duration": 0.6118749999999995, "durationTicks": 979, "midi": 53, "name": "F3", "ticks": 9600, "time": 6, "velocity": 0.5826771653543307 }, { "duration": 0.569375, "durationTicks": 911, "midi": 55, "name": "G3", "ticks": 10560, "time": 6.6, "velocity": 0.6141732283464567 }, { "duration": 0.6118750000000004, "durationTicks": 979, "midi": 64, "name": "E4", "ticks": 11520, "time": 7.199999999999999, "velocity": 0.6456692913385826 }, { "duration": 0.6118750000000004, "durationTicks": 979, "midi": 48, "name": "C3", "ticks": 11520, "time": 7.199999999999999, "velocity": 0.5669291338582677 }, { "duration": 0.569375, "durationTicks": 911, "midi": 67, "name": "G4", "ticks": 12480, "time": 7.8, "velocity": 0.6692913385826772 }, { "duration": 0.6118750000000004, "durationTicks": 979, "midi": 55, "name": "G3", "ticks": 12480, "time": 7.8, "velocity": 0.6614173228346457 }, { "duration": 1.1999999999999993, "durationTicks": 1920, "midi": 67, "name": "G4", "ticks": 13440, "time": 8.4, "velocity": 0.6220472440944882 }, { "duration": 0.6118749999999995, "durationTicks": 979, "midi": 52, "name": "E3", "ticks": 13440, "time": 8.4, "velocity": 0.5826771653543307 }, { "duration": 0.5693749999999991, "durationTicks": 911, "midi": 55, "name": "G3", "ticks": 14400, "time": 9, "velocity": 0.6535433070866141 }, { "duration": 0.6118749999999995, "durationTicks": 979, "midi": 64, "name": "E4", "ticks": 15360, "time": 9.6, "velocity": 0.5354330708661418 }, { "duration": 0.6118749999999995, "durationTicks": 979, "midi": 48, "name": "C3", "ticks": 15360, "time": 9.6, "velocity": 0.5275590551181102 }, { "duration": 0.6118749999999995, "durationTicks": 979, "midi": 62, "name": "D4", "ticks": 16320, "time": 10.2, "velocity": 0.5354330708661418 }, { "duration": 0.6118749999999995, "durationTicks": 979, "midi": 55, "name": "G3", "ticks": 16320, "time": 10.2, "velocity": 0.6535433070866141 }, { "duration": 0.6118750000000013, "durationTicks": 979, "midi": 60, "name": "C4", "ticks": 17280, "time": 10.799999999999999, "velocity": 0.5433070866141733 }, { "duration": 0.6118750000000013, "durationTicks": 979, "midi": 52, "name": "E3", "ticks": 17280, "time": 10.799999999999999, "velocity": 0.5984251968503937 }, { "duration": 0.5693749999999991, "durationTicks": 911, "midi": 62, "name": "D4", "ticks": 18240, "time": 11.4, "velocity": 0.6456692913385826 }, { "duration": 0.5693749999999991, "durationTicks": 911, "midi": 55, "name": "G3", "ticks": 18240, "time": 11.4, "velocity": 0.6062992125984252 }, { "duration": 0.5999999999999996, "durationTicks": 960, "midi": 64, "name": "E4", "ticks": 19200, "time": 12, "velocity": 0.6850393700787402 }, { "duration": 0.6118749999999995, "durationTicks": 979, "midi": 48, "name": "C3", "ticks": 19200, "time": 12, "velocity": 0.5748031496062992 }, { "duration": 0.5999999999999996, "durationTicks": 960, "midi": 64, "name": "E4", "ticks": 20160, "time": 12.6, "velocity": 0.6535433070866141 }, { "duration": 0.6118749999999995, "durationTicks": 979, "midi": 55, "name": "G3", "ticks": 20160, "time": 12.6, "velocity": 0.6456692913385826 }, { "duration": 0.5999999999999996, "durationTicks": 960, "midi": 64, "name": "E4", "ticks": 21120, "time": 13.2, "velocity": 0.6535433070866141 }, { "duration": 0.6118749999999995, "durationTicks": 979, "midi": 52, "name": "E3", "ticks": 21120, "time": 13.2, "velocity": 0.5984251968503937 }, { "duration": 0.5999999999999996, "durationTicks": 960, "midi": 64, "name": "E4", "ticks": 22080, "time": 13.799999999999999, "velocity": 0.6771653543307087 }, { "duration": 0.5693750000000009, "durationTicks": 911, "midi": 55, "name": "G3", "ticks": 22080, "time": 13.799999999999999, "velocity": 0.6062992125984252 }, { "duration": 0.6000000000000014, "durationTicks": 960, "midi": 62, "name": "D4", "ticks": 23040, "time": 14.399999999999999, "velocity": 0.6220472440944882 }, { "duration": 0.6118750000000013, "durationTicks": 979, "midi": 47, "name": "B2", "ticks": 23040, "time": 14.399999999999999, "velocity": 0.5354330708661418 }, { "duration": 0.5999999999999996, "durationTicks": 960, "midi": 62, "name": "D4", "ticks": 24000, "time": 15, "velocity": 0.6220472440944882 }, { "duration": 0.6118749999999995, "durationTicks": 979, "midi": 55, "name": "G3", "ticks": 24000, "time": 15, "velocity": 0.6929133858267716 }, { "duration": 0.6118749999999995, "durationTicks": 979, "midi": 64, "name": "E4", "ticks": 24960, "time": 15.6, "velocity": 0.6299212598425197 }, { "duration": 0.6118749999999995, "durationTicks": 979, "midi": 53, "name": "F3", "ticks": 24960, "time": 15.6, "velocity": 0.5826771653543307 }, { "duration": 0.5693750000000009, "durationTicks": 911, "midi": 62, "name": "D4", "ticks": 25920, "time": 16.2, "velocity": 0.5748031496062992 }, { "duration": 0.5693750000000009, "durationTicks": 911, "midi": 55, "name": "G3", "ticks": 25920, "time": 16.2, "velocity": 0.5748031496062992 }, { "duration": 2.3999999999999986, "durationTicks": 3840, "midi": 60, "name": "C4", "ticks": 26880, "time": 16.8, "velocity": 0.5669291338582677 }, { "duration": 0.6118749999999977, "durationTicks": 979, "midi": 48, "name": "C3", "ticks": 26880, "time": 16.8, "velocity": 0.5433070866141733 }, { "duration": 0.6118750000000013, "durationTicks": 979, "midi": 55, "name": "G3", "ticks": 27840, "time": 17.4, "velocity": 0.6614173228346457 }, { "duration": 1.1393749999999976, "durationTicks": 1823, "midi": 48, "name": "C3", "ticks": 28800, "time": 18, "velocity": 0.5669291338582677 }] }] }



var happy_and_you_know_it = { "header": { "keySignatures": [{ "key": "C", "scale": "major", "ticks": 0 }], "meta": [{ "text": "Copyright © ", "ticks": 0, "type": "copyrightNotice" }], "name": "", "ppq": 960, "tempos": [{ "bpm": 100, "ticks": 2880 }], "timeSignatures": [{ "ticks": 0, "timeSignature": [4, 4], "measures": 0 }, { "ticks": 30720, "timeSignature": [3, 4], "measures": 8 }] }, "tracks": [{ "channel": 0, "controlChanges": { "7": [{ "number": 7, "ticks": 2880, "time": 1.7999999999999998, "value": 0.7874015748031497 }, { "number": 7, "ticks": 2880, "time": 1.7999999999999998, "value": 0.7874015748031497 }], "10": [{ "number": 10, "ticks": 2880, "time": 1.7999999999999998, "value": 0.4015748031496063 }, { "number": 10, "ticks": 2880, "time": 1.7999999999999998, "value": 0.4015748031496063 }], "64": [{ "number": 64, "ticks": 2880, "time": 1.7999999999999998, "value": 0 }, { "number": 64, "ticks": 2880, "time": 1.7999999999999998, "value": 0 }], "91": [{ "number": 91, "ticks": 2880, "time": 1.7999999999999998, "value": 0.3779527559055118 }, { "number": 91, "ticks": 2880, "time": 1.7999999999999998, "value": 0.3779527559055118 }], "121": [{ "number": 121, "ticks": 2880, "time": 1.7999999999999998, "value": 0 }, { "number": 121, "ticks": 2880, "time": 1.7999999999999998, "value": 0 }] }, "instrument": { "family": "piano", "name": "acoustic grand piano", "number": 0 }, "name": "Piano", "notes": [{ "duration": 0.2999999999999998, "durationTicks": 480, "midi": 55, "name": "G3", "ticks": 2880, "time": 1.7999999999999998, "velocity": 0.7559055118110236 }, { "duration": 0.23875000000000002, "durationTicks": 382, "midi": 55, "name": "G3", "ticks": 3458, "time": 2.16125, "velocity": 0.7086614173228346 }, { "duration": 0.2999999999999998, "durationTicks": 480, "midi": 60, "name": "C4", "ticks": 3840, "time": 2.4, "velocity": 0.5433070866141733 }, { "duration": 2.4, "durationTicks": 3840, "midi": 52, "name": "E3", "ticks": 3840, "time": 2.4, "velocity": 0.7795275590551181 }, { "duration": 0.23875000000000046, "durationTicks": 382, "midi": 60, "name": "C4", "ticks": 4418, "time": 2.7612499999999995, "velocity": 0.5590551181102362 }, { "duration": 0.2999999999999998, "durationTicks": 480, "midi": 60, "name": "C4", "ticks": 4800, "time": 3, "velocity": 0.6141732283464567 }, { "duration": 0.23874999999999957, "durationTicks": 382, "midi": 60, "name": "C4", "ticks": 5378, "time": 3.36125, "velocity": 0.5826771653543307 }, { "duration": 0.30000000000000027, "durationTicks": 480, "midi": 60, "name": "C4", "ticks": 5760, "time": 3.5999999999999996, "velocity": 0.6220472440944882 }, { "duration": 0.23874999999999957, "durationTicks": 382, "midi": 60, "name": "C4", "ticks": 6338, "time": 3.9612499999999997, "velocity": 0.5511811023622047 }, { "duration": 0.3000000000000007, "durationTicks": 480, "midi": 59, "name": "B3", "ticks": 6720, "time": 4.199999999999999, "velocity": 0.6220472440944882 }, { "duration": 0.23875000000000046, "durationTicks": 382, "midi": 60, "name": "C4", "ticks": 7298, "time": 4.561249999999999, "velocity": 0.5905511811023622 }, { "duration": 1.7999999999999998, "durationTicks": 2880, "midi": 62, "name": "D4", "ticks": 7680, "time": 4.8, "velocity": 0.6771653543307087 }, { "duration": 1.7999999999999998, "durationTicks": 2880, "midi": 55, "name": "G3", "ticks": 7680, "time": 4.8, "velocity": 0.8267716535433071 }, { "duration": 0.2999999999999998, "durationTicks": 480, "midi": 55, "name": "G3", "ticks": 10560, "time": 6.6, "velocity": 0.8346456692913385 }, { "duration": 0.23874999999999957, "durationTicks": 382, "midi": 55, "name": "G3", "ticks": 11138, "time": 6.96125, "velocity": 0.7480314960629921 }, { "duration": 0.3000000000000007, "durationTicks": 480, "midi": 62, "name": "D4", "ticks": 11520, "time": 7.199999999999999, "velocity": 0.5669291338582677 }, { "duration": 2.4000000000000004, "durationTicks": 3840, "midi": 55, "name": "G3", "ticks": 11520, "time": 7.199999999999999, "velocity": 0.84251968503937 }, { "duration": 0.23875000000000046, "durationTicks": 382, "midi": 62, "name": "D4", "ticks": 12098, "time": 7.561249999999999, "velocity": 0.5433070866141733 }, { "duration": 0.2999999999999998, "durationTicks": 480, "midi": 62, "name": "D4", "ticks": 12480, "time": 7.8, "velocity": 0.6456692913385826 }, { "duration": 0.23874999999999957, "durationTicks": 382, "midi": 62, "name": "D4", "ticks": 13058, "time": 8.161249999999999, "velocity": 0.5669291338582677 }, { "duration": 0.3000000000000007, "durationTicks": 480, "midi": 62, "name": "D4", "ticks": 13440, "time": 8.399999999999999, "velocity": 0.6220472440944882 }, { "duration": 0.23874999999999957, "durationTicks": 382, "midi": 62, "name": "D4", "ticks": 14018, "time": 8.76125, "velocity": 0.5669291338582677 }, { "duration": 0.3000000000000007, "durationTicks": 480, "midi": 60, "name": "C4", "ticks": 14400, "time": 9, "velocity": 0.5905511811023622 }, { "duration": 0.23875000000000135, "durationTicks": 382, "midi": 62, "name": "D4", "ticks": 14978, "time": 9.361249999999998, "velocity": 0.5669291338582677 }, { "duration": 1.799999999999999, "durationTicks": 2880, "midi": 64, "name": "E4", "ticks": 15360, "time": 9.6, "velocity": 0.6771653543307087 }, { "duration": 1.799999999999999, "durationTicks": 2880, "midi": 48, "name": "C3", "ticks": 15360, "time": 9.6, "velocity": 0.7322834645669292 }, { "duration": 0.3000000000000007, "durationTicks": 480, "midi": 64, "name": "E4", "ticks": 18240, "time": 11.399999999999999, "velocity": 0.6456692913385826 }, { "duration": 0.23874999999999957, "durationTicks": 382, "midi": 64, "name": "E4", "ticks": 18818, "time": 11.76125, "velocity": 0.5748031496062992 }, { "duration": 0.3000000000000007, "durationTicks": 480, "midi": 65, "name": "F4", "ticks": 19200, "time": 12, "velocity": 0.6299212598425197 }, { "duration": 0.23874999999999957, "durationTicks": 382, "midi": 65, "name": "F4", "ticks": 19778, "time": 12.361249999999998, "velocity": 0.6141732283464567 }, { "duration": 0.3000000000000007, "durationTicks": 480, "midi": 65, "name": "F4", "ticks": 20160, "time": 12.599999999999998, "velocity": 0.6377952755905512 }, { "duration": 0.23874999999999957, "durationTicks": 382, "midi": 65, "name": "F4", "ticks": 20738, "time": 12.96125, "velocity": 0.5748031496062992 }, { "duration": 0.3000000000000007, "durationTicks": 480, "midi": 57, "name": "A3", "ticks": 21120, "time": 13.2, "velocity": 0.7086614173228346 }, { "duration": 0.23875000000000313, "durationTicks": 382, "midi": 57, "name": "A3", "ticks": 21698, "time": 13.561249999999998, "velocity": 0.7007874015748031 }, { "duration": 0.29999999999999716, "durationTicks": 480, "midi": 65, "name": "F4", "ticks": 22080, "time": 13.8, "velocity": 0.5826771653543307 }, { "duration": 0.23874999999999957, "durationTicks": 382, "midi": 65, "name": "F4", "ticks": 22658, "time": 14.161249999999999, "velocity": 0.5511811023622047 }, { "duration": 0.3000000000000007, "durationTicks": 480, "midi": 64, "name": "E4", "ticks": 23040, "time": 14.399999999999999, "velocity": 0.6377952755905512 }, { "duration": 0.23874999999999957, "durationTicks": 382, "midi": 64, "name": "E4", "ticks": 23618, "time": 14.76125, "velocity": 0.5826771653543307 }, { "duration": 0.3000000000000007, "durationTicks": 480, "midi": 64, "name": "E4", "ticks": 24000, "time": 15, "velocity": 0.6377952755905512 }, { "duration": 0.23874999999999957, "durationTicks": 382, "midi": 62, "name": "D4", "ticks": 24578, "time": 15.361249999999998, "velocity": 0.5118110236220472 }, { "duration": 0.3000000000000007, "durationTicks": 480, "midi": 60, "name": "C4", "ticks": 24960, "time": 15.599999999999998, "velocity": 0.5748031496062992 }, { "duration": 0.23874999999999957, "durationTicks": 382, "midi": 60, "name": "C4", "ticks": 25538, "time": 15.96125, "velocity": 0.5748031496062992 }, { "duration": 0.3000000000000007, "durationTicks": 480, "midi": 64, "name": "E4", "ticks": 25920, "time": 16.2, "velocity": 0.6692913385826772 }, { "duration": 0.23875000000000313, "durationTicks": 382, "midi": 64, "name": "E4", "ticks": 26498, "time": 16.561249999999998, "velocity": 0.5669291338582677 }, { "duration": 0.29999999999999716, "durationTicks": 480, "midi": 62, "name": "D4", "ticks": 26880, "time": 16.8, "velocity": 0.5905511811023622 }, { "duration": 2.3999999999999986, "durationTicks": 3840, "midi": 55, "name": "G3", "ticks": 26880, "time": 16.8, "velocity": 0.7480314960629921 }, { "duration": 0.23874999999999957, "durationTicks": 382, "midi": 62, "name": "D4", "ticks": 27458, "time": 17.16125, "velocity": 0.5905511811023622 }, { "duration": 0.3000000000000007, "durationTicks": 480, "midi": 62, "name": "D4", "ticks": 27840, "time": 17.4, "velocity": 0.6692913385826772 }, { "duration": 0.23874999999999957, "durationTicks": 382, "midi": 60, "name": "C4", "ticks": 28418, "time": 17.76125, "velocity": 0.5511811023622047 }, { "duration": 0.3000000000000007, "durationTicks": 480, "midi": 59, "name": "B3", "ticks": 28800, "time": 18, "velocity": 0.5984251968503937 }, { "duration": 0.23875000000000313, "durationTicks": 382, "midi": 59, "name": "B3", "ticks": 29378, "time": 18.36125, "velocity": 0.6141732283464567 }, { "duration": 0.29999999999999716, "durationTicks": 480, "midi": 57, "name": "A3", "ticks": 29760, "time": 18.6, "velocity": 0.6456692913385826 }, { "duration": 0.23874999999999957, "durationTicks": 382, "midi": 59, "name": "B3", "ticks": 30338, "time": 18.96125, "velocity": 0.5590551181102362 }, { "duration": 1.8000000000000007, "durationTicks": 2880, "midi": 60, "name": "C4", "ticks": 30720, "time": 19.2, "velocity": 0.6535433070866141 }, { "duration": 1.8000000000000007, "durationTicks": 2880, "midi": 48, "name": "C3", "ticks": 30720, "time": 19.2, "velocity": 0.7401574803149606 }] }] }



var twinkle_twinkle =
{
    "header":
        { "keySignatures": [{ "key": "C", "scale": "major", "ticks": 0 }], "meta": [{ "text": "trad.", "ticks": 0, "type": "text" }], "name": "Twinke Twinkle Little Star", "ppq": 960, "tempos": [{ "bpm": 100, "ticks": 0 }], "timeSignatures": [{ "ticks": 0, "timeSignature": [4, 4], "measures": 0 }] },

    "tracks": [{ "channel": 0, "controlChanges": { "7": [{ "number": 7, "ticks": 0, "time": 0, "value": 1 }, { "number": 7, "ticks": 0, "time": 0, "value": 1 }], "10": [{ "number": 10, "ticks": 0, "time": 0, "value": 0.4015748031496063 }, { "number": 10, "ticks": 0, "time": 0, "value": 0.4015748031496063 }], "64": [{ "number": 64, "ticks": 0, "time": 0, "value": 0 }, { "number": 64, "ticks": 0, "time": 0, "value": 0 }], "91": [{ "number": 91, "ticks": 0, "time": 0, "value": 0.3779527559055118 }, { "number": 91, "ticks": 0, "time": 0, "value": 0.3779527559055118 }], "121": [{ "number": 121, "ticks": 0, "time": 0, "value": 0 }, { "number": 121, "ticks": 0, "time": 0, "value": 0 }] }, "instrument": { "family": "piano", "name": "acoustic grand piano", "number": 0 }, "name": "", "notes": [{ "duration": 0.6, "durationTicks": 960, "midi": 60, "name": "C4", "ticks": 0, "time": 0, "velocity": 0.5433070866141733 }, { "duration": 1.2, "durationTicks": 1920, "midi": 48, "name": "C3", "ticks": 0, "time": 0, "velocity": 0.5118110236220472 }, { "duration": 0.6, "durationTicks": 960, "midi": 60, "name": "C4", "ticks": 960, "time": 0.6, "velocity": 0.5984251968503937 }, { "duration": 0.5999999999999999, "durationTicks": 960, "midi": 67, "name": "G4", "ticks": 1920, "time": 1.2, "velocity": 0.6850393700787402 }, { "duration": 1.2, "durationTicks": 1920, "midi": 52, "name": "E3", "ticks": 1920, "time": 1.2, "velocity": 0.5984251968503937 }, { "duration": 0.6000000000000001, "durationTicks": 960, "midi": 67, "name": "G4", "ticks": 2880, "time": 1.7999999999999998, "velocity": 0.6377952755905512 }, { "duration": 0.6000000000000001, "durationTicks": 960, "midi": 69, "name": "A4", "ticks": 3840, "time": 2.4, "velocity": 0.6299212598425197 }, { "duration": 1.1999999999999997, "durationTicks": 1920, "midi": 53, "name": "F3", "ticks": 3840, "time": 2.4, "velocity": 0.5984251968503937 }, { "duration": 0.5999999999999996, "durationTicks": 960, "midi": 69, "name": "A4", "ticks": 4800, "time": 3, "velocity": 0.6062992125984252 }, { "duration": 1.2000000000000002, "durationTicks": 1920, "midi": 67, "name": "G4", "ticks": 5760, "time": 3.5999999999999996, "velocity": 0.5984251968503937 }, { "duration": 1.2000000000000002, "durationTicks": 1920, "midi": 52, "name": "E3", "ticks": 5760, "time": 3.5999999999999996, "velocity": 0.6062992125984252 }, { "duration": 0.5999999999999996, "durationTicks": 960, "midi": 65, "name": "F4", "ticks": 7680, "time": 4.8, "velocity": 0.5275590551181102 }, { "duration": 1.2000000000000002, "durationTicks": 1920, "midi": 50, "name": "D3", "ticks": 7680, "time": 4.8, "velocity": 0.5984251968503937 }, { "duration": 0.6000000000000005, "durationTicks": 960, "midi": 65, "name": "F4", "ticks": 8640, "time": 5.3999999999999995, "velocity": 0.5826771653543307 }, { "duration": 0.5999999999999996, "durationTicks": 960, "midi": 64, "name": "E4", "ticks": 9600, "time": 6, "velocity": 0.5748031496062992 }, { "duration": 1.1999999999999993, "durationTicks": 1920, "midi": 48, "name": "C3", "ticks": 9600, "time": 6, "velocity": 0.5905511811023622 }, { "duration": 0.5999999999999996, "durationTicks": 960, "midi": 64, "name": "E4", "ticks": 10560, "time": 6.6, "velocity": 0.5826771653543307 }, { "duration": 0.6000000000000005, "durationTicks": 960, "midi": 62, "name": "D4", "ticks": 11520, "time": 7.199999999999999, "velocity": 0.5590551181102362 }, { "duration": 0.6000000000000005, "durationTicks": 960, "midi": 53, "name": "F3", "ticks": 11520, "time": 7.199999999999999, "velocity": 0.6377952755905512 }, { "duration": 0.6000000000000005, "durationTicks": 960, "midi": 62, "name": "D4", "ticks": 12480, "time": 7.8, "velocity": 0.6062992125984252 }, { "duration": 0.6000000000000005, "durationTicks": 960, "midi": 55, "name": "G3", "ticks": 12480, "time": 7.8, "velocity": 0.6141732283464567 }, { "duration": 1.1999999999999993, "durationTicks": 1920, "midi": 60, "name": "C4", "ticks": 13440, "time": 8.4, "velocity": 0.5354330708661418 }, { "duration": 0.5999999999999996, "durationTicks": 960, "midi": 52, "name": "E3", "ticks": 13440, "time": 8.4, "velocity": 0.5511811023622047 }, { "duration": 0.5999999999999996, "durationTicks": 960, "midi": 48, "name": "C3", "ticks": 14400, "time": 9, "velocity": 0.5669291338582677 }, { "duration": 0.5999999999999996, "durationTicks": 960, "midi": 67, "name": "G4", "ticks": 15360, "time": 9.6, "velocity": 0.6850393700787402 }, { "duration": 1.1999999999999993, "durationTicks": 1920, "midi": 52, "name": "E3", "ticks": 15360, "time": 9.6, "velocity": 0.6614173228346457 }, { "duration": 0.5999999999999996, "durationTicks": 960, "midi": 67, "name": "G4", "ticks": 16320, "time": 10.2, "velocity": 0.6141732283464567 }, { "duration": 0.6000000000000014, "durationTicks": 960, "midi": 65, "name": "F4", "ticks": 17280, "time": 10.799999999999999, "velocity": 0.5354330708661418 }, { "duration": 1.200000000000001, "durationTicks": 1920, "midi": 53, "name": "F3", "ticks": 17280, "time": 10.799999999999999, "velocity": 0.5984251968503937 }, { "duration": 0.5999999999999996, "durationTicks": 960, "midi": 65, "name": "F4", "ticks": 18240, "time": 11.4, "velocity": 0.5669291338582677 }, { "duration": 0.5999999999999996, "durationTicks": 960, "midi": 64, "name": "E4", "ticks": 19200, "time": 12, "velocity": 0.5826771653543307 }, { "duration": 1.1999999999999993, "durationTicks": 1920, "midi": 55, "name": "G3", "ticks": 19200, "time": 12, "velocity": 0.6535433070866141 }, { "duration": 0.5999999999999996, "durationTicks": 960, "midi": 64, "name": "E4", "ticks": 20160, "time": 12.6, "velocity": 0.5905511811023622 }, { "duration": 1.1999999999999993, "durationTicks": 1920, "midi": 62, "name": "D4", "ticks": 21120, "time": 13.2, "velocity": 0.5826771653543307 }, { "duration": 1.1999999999999993, "durationTicks": 1920, "midi": 55, "name": "G3", "ticks": 21120, "time": 13.2, "velocity": 0.5984251968503937 }, { "duration": 0.6000000000000014, "durationTicks": 960, "midi": 67, "name": "G4", "ticks": 23040, "time": 14.399999999999999, "velocity": 0.6850393700787402 }, { "duration": 1.200000000000001, "durationTicks": 1920, "midi": 52, "name": "E3", "ticks": 23040, "time": 14.399999999999999, "velocity": 0.5590551181102362 }, { "duration": 0.5999999999999996, "durationTicks": 960, "midi": 67, "name": "G4", "ticks": 24000, "time": 15, "velocity": 0.6377952755905512 }, { "duration": 0.5999999999999996, "durationTicks": 960, "midi": 65, "name": "F4", "ticks": 24960, "time": 15.6, "velocity": 0.5354330708661418 }, { "duration": 1.200000000000001, "durationTicks": 1920, "midi": 53, "name": "F3", "ticks": 24960, "time": 15.6, "velocity": 0.6062992125984252 }, { "duration": 0.6000000000000014, "durationTicks": 960, "midi": 65, "name": "F4", "ticks": 25920, "time": 16.2, "velocity": 0.5905511811023622 }, { "duration": 0.5999999999999979, "durationTicks": 960, "midi": 64, "name": "E4", "ticks": 26880, "time": 16.8, "velocity": 0.6062992125984252 }, { "duration": 1.1999999999999993, "durationTicks": 1920, "midi": 55, "name": "G3", "ticks": 26880, "time": 16.8, "velocity": 0.6299212598425197 }, { "duration": 0.6000000000000014, "durationTicks": 960, "midi": 64, "name": "E4", "ticks": 27840, "time": 17.4, "velocity": 0.6062992125984252 }, { "duration": 1.1999999999999993, "durationTicks": 1920, "midi": 62, "name": "D4", "ticks": 28800, "time": 18, "velocity": 0.5669291338582677 }, { "duration": 1.1999999999999993, "durationTicks": 1920, "midi": 55, "name": "G3", "ticks": 28800, "time": 18, "velocity": 0.5826771653543307 }, { "duration": 0.6000000000000014, "durationTicks": 960, "midi": 60, "name": "C4", "ticks": 30720, "time": 19.2, "velocity": 0.5748031496062992 }, { "duration": 1.1999999999999993, "durationTicks": 1920, "midi": 48, "name": "C3", "ticks": 30720, "time": 19.2, "velocity": 0.5748031496062992 }, { "duration": 0.5999999999999979, "durationTicks": 960, "midi": 60, "name": "C4", "ticks": 31680, "time": 19.8, "velocity": 0.5826771653543307 }, { "duration": 0.6000000000000014, "durationTicks": 960, "midi": 67, "name": "G4", "ticks": 32640, "time": 20.4, "velocity": 0.6692913385826772 }, { "duration": 1.1999999999999993, "durationTicks": 1920, "midi": 52, "name": "E3", "ticks": 32640, "time": 20.4, "velocity": 0.6692913385826772 }, { "duration": 0.5999999999999979, "durationTicks": 960, "midi": 67, "name": "G4", "ticks": 33600, "time": 21, "velocity": 0.6220472440944882 }, { "duration": 0.6000000000000014, "durationTicks": 960, "midi": 69, "name": "A4", "ticks": 34560, "time": 21.599999999999998, "velocity": 0.6220472440944882 }, { "duration": 1.2000000000000028, "durationTicks": 1920, "midi": 53, "name": "F3", "ticks": 34560, "time": 21.599999999999998, "velocity": 0.6614173228346457 }, { "duration": 0.6000000000000014, "durationTicks": 960, "midi": 69, "name": "A4", "ticks": 35520, "time": 22.2, "velocity": 0.6062992125984252 }, { "duration": 1.1999999999999993, "durationTicks": 1920, "midi": 67, "name": "G4", "ticks": 36480, "time": 22.8, "velocity": 0.5433070866141733 }, { "duration": 1.1999999999999993, "durationTicks": 1920, "midi": 52, "name": "E3", "ticks": 36480, "time": 22.8, "velocity": 0.5826771653543307 }, { "duration": 0.5999999999999979, "durationTicks": 960, "midi": 65, "name": "F4", "ticks": 38400, "time": 24, "velocity": 0.5826771653543307 }, { "duration": 1.1999999999999993, "durationTicks": 1920, "midi": 50, "name": "D3", "ticks": 38400, "time": 24, "velocity": 0.6220472440944882 }, { "duration": 0.6000000000000014, "durationTicks": 960, "midi": 65, "name": "F4", "ticks": 39360, "time": 24.599999999999998, "velocity": 0.6062992125984252 }, { "duration": 0.6000000000000014, "durationTicks": 960, "midi": 64, "name": "E4", "ticks": 40320, "time": 25.2, "velocity": 0.5984251968503937 }, { "duration": 1.1999999999999993, "durationTicks": 1920, "midi": 48, "name": "C3", "ticks": 40320, "time": 25.2, "velocity": 0.5826771653543307 }, { "duration": 0.5999999999999979, "durationTicks": 960, "midi": 64, "name": "E4", "ticks": 41280, "time": 25.8, "velocity": 0.5984251968503937 }, { "duration": 0.6000000000000014, "durationTicks": 960, "midi": 62, "name": "D4", "ticks": 42240, "time": 26.4, "velocity": 0.5748031496062992 }, { "duration": 0.6000000000000014, "durationTicks": 960, "midi": 53, "name": "F3", "ticks": 42240, "time": 26.4, "velocity": 0.6299212598425197 }, { "duration": 0.5999999999999979, "durationTicks": 960, "midi": 62, "name": "D4", "ticks": 43200, "time": 27, "velocity": 0.6062992125984252 }, { "duration": 0.5999999999999979, "durationTicks": 960, "midi": 55, "name": "G3", "ticks": 43200, "time": 27, "velocity": 0.6377952755905512 }, { "duration": 1.1999999999999993, "durationTicks": 1920, "midi": 60, "name": "C4", "ticks": 44160, "time": 27.599999999999998, "velocity": 0.5590551181102362 }, { "duration": 1.1999999999999993, "durationTicks": 1920, "midi": 48, "name": "C3", "ticks": 44160, "time": 27.599999999999998, "velocity": 0.5433070866141733 }] }]
}


export { twinkle_twinkle, happy_and_you_know_it, mary_had_a_lamb };